<svg xmlns="http://www.w3.org/2000/svg"  viewBox="0 0 48 48" width="48px" height="48px" baseProfile="basic"><path d="M44,24H4c0,0.338,0,1.662,0,2c0,11.028,8.972,20,20,20s20-8.972,20-20C44,25.662,44,24.338,44,24z"/><circle cx="24" cy="24" r="19" fill="#fff"/><path d="M24,44C12.972,44,4,35.028,4,24S12.972,4,24,4s20,8.972,20,20S35.028,44,24,44z M24,6C14.075,6,6,14.075,6,24	s8.075,18,18,18s18-8.075,18-18S33.925,6,24,6z"/><path d="M21.941,32.059L21.941,32.059c-0.266,0-0.52-0.105-0.707-0.293l-6.825-6.826c-0.391-0.391-0.391-1.023,0-1.414 s1.023-0.391,1.414,0l6.118,6.119l11.352-11.352c0.391-0.391,1.023-0.391,1.414,0s0.391,1.023,0,1.414L22.648,31.766 C22.461,31.953,22.207,32.059,21.941,32.059z"/></svg>